<svg width="46" height="35" viewBox="0 0 46 35" fill="none" xmlns="http://www.w3.org/2000/svg">
<path d="M36.9392 26.8872C34.7315 26.8872 32.9355 28.6856 32.9355 30.8968C32.9355 33.1089 34.7315 34.9085 36.9392 34.9085C39.1478 34.9085 40.9433 33.1089 40.9433 30.8968C40.9433 28.6856 39.1478 26.8872 36.9392 26.8872Z" fill="#00AC4E"/>
<path d="M9.94417 26.8872C7.73539 26.8872 5.93945 28.6856 5.93945 30.8968C5.93945 33.1089 7.73539 34.9085 9.94417 34.9085C12.1517 34.9085 13.9477 33.1089 13.9477 30.8968C13.9478 28.6856 12.1519 26.8872 9.94417 26.8872Z" fill="#00AC4E"/>
<path d="M39.2008 10.0424C38.9895 9.40586 38.3938 8.97571 37.7226 8.97571H35.8301V15.6327H41.0526L39.2008 10.0424Z" fill="#00AC4E"/>
<path d="M44.2174 18.1245H35.8301V24.4929C36.1914 24.4309 36.5629 24.3962 36.9416 24.3962C40.2882 24.3962 43.0514 26.9433 43.3992 30.2021H43.6923C44.5516 30.2021 45.2487 29.505 45.2487 28.6447V19.5886C45.2487 18.9128 44.818 18.3405 44.2174 18.1245Z" fill="#00AC4E"/>
<path d="M33.2768 1.61228C33.2768 0.751981 32.5797 0.0548096 31.7203 0.0548096H1.69117C0.831937 0.0548096 0.134766 0.75183 0.134766 1.61228V28.6445C0.134766 29.5048 0.831937 30.2019 1.69117 30.2019H3.48347C3.83145 26.9432 6.59446 24.396 9.94165 24.396C13.2876 24.396 16.0502 26.9432 16.3982 30.2019H28.6898H30.4821C30.6917 28.2398 31.7763 26.5379 33.337 25.4922L33.2768 1.61228Z" fill="#00AC4E"/>
</svg>
