<svg width="44" height="52" viewBox="0 0 44 52" fill="none" xmlns="http://www.w3.org/2000/svg">
<path d="M12.9992 26.4557C20.1024 26.4557 25.8637 20.6943 25.8637 13.5912C25.8637 6.48804 20.1024 0.716064 12.9992 0.716064C5.89609 0.716064 0.134766 6.47739 0.134766 13.5805C0.134766 20.6837 5.89609 26.4557 12.9992 26.4557ZM8.5052 18.671C8.62234 18.245 8.73948 17.8297 8.86728 17.4037C9.01637 16.9138 9.15481 16.8606 9.60208 17.0948C10.3688 17.4889 11.1782 17.7125 12.0301 17.819C12.5733 17.8829 13.1164 17.8297 13.6169 17.606C14.5647 17.1907 14.7138 16.0938 13.9151 15.4335C13.6382 15.2099 13.3294 15.0395 13.0099 14.9011C12.1792 14.539 11.3166 14.2621 10.5286 13.7935C9.2613 13.0374 8.45195 11.9831 8.54779 10.439C8.65429 8.69247 9.64468 7.59558 11.2421 7.02051C11.9024 6.77557 11.9024 6.78622 11.913 6.09401C11.913 5.85972 11.913 5.62544 11.913 5.39115C11.9237 4.86933 12.0195 4.78414 12.5307 4.76284C12.6904 4.76284 12.8502 4.76284 13.0099 4.76284C14.1174 4.76284 14.1174 4.76284 14.1174 5.87037C14.1174 6.64778 14.1174 6.65843 14.8948 6.77557C15.4912 6.87142 16.0556 7.04181 16.6094 7.28674C16.9182 7.42519 17.0247 7.63817 16.9395 7.95766C16.8011 8.43688 16.6733 8.9161 16.5135 9.38468C16.3645 9.83195 16.226 9.89585 15.8 9.69351C14.9374 9.27818 14.0322 9.09714 13.0738 9.15039C12.8182 9.16104 12.5839 9.19299 12.3496 9.29948C11.5296 9.66156 11.3912 10.5668 12.094 11.1312C12.4455 11.4187 12.8502 11.621 13.2761 11.7914C14.0003 12.0896 14.7351 12.3878 15.438 12.7712C17.6424 13.9959 18.2387 16.7647 16.6839 18.6497C16.1195 19.3312 15.3954 19.7891 14.5328 20.0234C14.16 20.1299 13.9896 20.3216 14.0109 20.705C14.0322 21.0884 14.0109 21.4611 14.0109 21.8445C14.0109 22.1853 13.8405 22.3663 13.4998 22.3769C13.0951 22.3876 12.6798 22.3876 12.2751 22.3769C11.913 22.3663 11.7426 22.164 11.7426 21.8125C11.7426 21.5356 11.7426 21.2588 11.732 20.9819C11.7213 20.3749 11.7107 20.3429 11.1143 20.2471C10.3582 20.1299 9.62338 19.9595 8.93117 19.6187C8.40935 19.3738 8.3561 19.2354 8.5052 18.671Z" fill="#00AC4E"/>
<path d="M41.8604 27.5309H40.3589C39.3685 24.4958 37.4303 21.8015 34.8425 19.7142C34.8425 19.6184 34.8212 19.5119 34.7999 19.4161C34.2568 17.5098 34.9277 15.774 35.7051 14.528C36.2482 13.6547 35.5453 12.5365 34.523 12.6643C32.2334 12.9519 30.6573 13.7932 29.571 14.741C28.8256 15.3906 28.2931 16.2638 28.0588 17.2329C26.4188 24.0273 20.2954 29.0857 13.0005 29.0857C9.4543 29.0857 6.19558 27.893 3.58648 25.8909C2.68128 27.8504 2.19141 29.9909 2.19141 32.2379C2.19141 33.452 2.3405 34.6341 2.61738 35.7735C2.61738 35.7735 2.61738 35.7948 2.62803 35.8268C2.91557 37.0089 3.35219 38.1484 3.90596 39.2239C4.64077 40.8107 5.70571 42.6637 7.17533 44.1653C9.29456 46.3484 9.65664 49.0533 9.70988 50.2248V50.7253C9.70988 50.7466 9.70988 50.7679 9.70988 50.7892C9.70988 50.7999 9.70988 50.7999 9.70988 50.7999C9.75248 51.3749 10.2317 51.8328 10.8174 51.8328H17.5478C18.1549 51.8328 18.6554 51.343 18.6554 50.7253V49.064C19.6351 49.1918 20.6362 49.2663 21.6479 49.2663C22.4466 49.2663 23.224 49.2237 24.0014 49.1385V50.7253C24.0014 51.3323 24.4913 51.8328 25.1089 51.8328H31.8606C32.4677 51.8328 32.9682 51.343 32.9682 50.7253V49.064C32.9788 48.5102 33.1705 46.3058 35.2578 44.4209C35.3323 44.357 35.4069 44.2931 35.4814 44.2292C35.5027 44.2079 35.524 44.1972 35.5453 44.1759C37.8669 42.1099 39.5815 39.5328 40.4654 36.6574H41.8817C43.0106 36.6574 43.9264 35.7416 43.9264 34.6128V29.5756C43.9051 28.4468 42.9893 27.5309 41.8604 27.5309ZM33.4368 27.893C32.5103 27.893 31.7648 27.1475 31.7648 26.221C31.7648 25.2945 32.5103 24.5491 33.4368 24.5491C34.3632 24.5491 35.1087 25.2945 35.1087 26.221C35.1087 27.1475 34.3632 27.893 33.4368 27.893Z" fill="#00AC4E"/>
</svg>
