<svg width="13" height="13" viewBox="0 0 13 13" fill="none" xmlns="http://www.w3.org/2000/svg">
<g id="Icon/Fill/star">
<path id="Mask" fill-rule="evenodd" clip-rule="evenodd" d="M9.27227 11.0661C9.19278 11.0661 9.11279 11.0475 9.03934 11.0092L6.47412 9.66903L3.9094 11.0092C3.73936 11.0973 3.5341 11.0822 3.38016 10.9695C3.22521 10.8568 3.14824 10.6661 3.18094 10.4775L3.66943 7.64613L1.59673 5.64135C1.45889 5.50803 1.40908 5.3078 1.46794 5.12468C1.5268 4.94256 1.68427 4.80925 1.87443 4.78208L4.74201 4.36553L6.02386 1.78672C6.1939 1.44463 6.75484 1.44463 6.92488 1.78672L8.20674 4.36553L11.0743 4.78208C11.2645 4.80925 11.4219 4.94256 11.4808 5.12468C11.5397 5.3078 11.4899 5.50803 11.352 5.64135L9.27931 7.64613L9.76781 10.4775C9.80051 10.6661 9.72303 10.8568 9.56858 10.9695C9.48105 11.0339 9.37691 11.0661 9.27227 11.0661Z" fill="black"/>
<mask id="mask0_174_156" style="mask-type:alpha" maskUnits="userSpaceOnUse" x="1" y="1" width="11" height="11">
<path id="Mask_2" fill-rule="evenodd" clip-rule="evenodd" d="M9.27227 11.0661C9.19278 11.0661 9.11279 11.0475 9.03934 11.0092L6.47412 9.66903L3.9094 11.0092C3.73936 11.0973 3.5341 11.0822 3.38016 10.9695C3.22521 10.8568 3.14824 10.6661 3.18094 10.4775L3.66943 7.64613L1.59673 5.64135C1.45889 5.50803 1.40908 5.3078 1.46794 5.12468C1.5268 4.94256 1.68427 4.80925 1.87443 4.78208L4.74201 4.36553L6.02386 1.78672C6.1939 1.44463 6.75484 1.44463 6.92488 1.78672L8.20674 4.36553L11.0743 4.78208C11.2645 4.80925 11.4219 4.94256 11.4808 5.12468C11.5397 5.3078 11.4899 5.50803 11.352 5.64135L9.27931 7.64613L9.76781 10.4775C9.80051 10.6661 9.72303 10.8568 9.56858 10.9695C9.48105 11.0339 9.37691 11.0661 9.27227 11.0661Z" fill="white"/>
</mask>
<g mask="url(#mask0_174_156)">
<g id="&#240;&#159;&#142;&#168; Color">
<rect id="Base" x="0.437256" y="0.500854" width="12.074" height="12.074" fill="#00AC4E"/>
</g>
</g>
</g>
</svg>
