<svg width="13" height="13" viewBox="0 0 13 13" fill="none" xmlns="http://www.w3.org/2000/svg">
<path fill-rule="evenodd" clip-rule="evenodd" d="M9.6668 11.0661C9.58731 11.0661 9.50732 11.0475 9.43387 11.0092L6.86865 9.66903L4.30394 11.0092C4.13389 11.0973 3.92864 11.0822 3.77469 10.9695C3.61974 10.8568 3.54277 10.6661 3.57547 10.4775L4.06396 7.64613L1.99126 5.64135C1.85342 5.50803 1.80361 5.3078 1.86247 5.12468C1.92133 4.94256 2.0788 4.80925 2.26896 4.78208L5.13654 4.36553L6.41839 1.78672C6.58843 1.44463 7.14937 1.44463 7.31941 1.78672L8.60127 4.36553L11.4688 4.78208C11.659 4.80925 11.8165 4.94256 11.8753 5.12468C11.9342 5.3078 11.8844 5.50803 11.7465 5.64135L9.67384 7.64613L10.1623 10.4775C10.195 10.6661 10.1176 10.8568 9.96312 10.9695C9.87558 11.0339 9.77144 11.0661 9.6668 11.0661Z" fill="black"/>
<mask id="mask0_174_176" style="mask-type:alpha" maskUnits="userSpaceOnUse" x="1" y="1" width="11" height="11">
<path fill-rule="evenodd" clip-rule="evenodd" d="M9.6668 11.0661C9.58731 11.0661 9.50732 11.0475 9.43387 11.0092L6.86865 9.66903L4.30394 11.0092C4.13389 11.0973 3.92864 11.0822 3.77469 10.9695C3.61974 10.8568 3.54277 10.6661 3.57547 10.4775L4.06396 7.64613L1.99126 5.64135C1.85342 5.50803 1.80361 5.3078 1.86247 5.12468C1.92133 4.94256 2.0788 4.80925 2.26896 4.78208L5.13654 4.36553L6.41839 1.78672C6.58843 1.44463 7.14937 1.44463 7.31941 1.78672L8.60127 4.36553L11.4688 4.78208C11.659 4.80925 11.8165 4.94256 11.8753 5.12468C11.9342 5.3078 11.8844 5.50803 11.7465 5.64135L9.67384 7.64613L10.1623 10.4775C10.195 10.6661 10.1176 10.8568 9.96312 10.9695C9.87558 11.0339 9.77144 11.0661 9.6668 11.0661Z" fill="white"/>
</mask>
<g mask="url(#mask0_174_176)">
<rect x="0.831909" y="0.500854" width="12.074" height="12.074" fill="#EBEBEB"/>
</g>
</svg>
